<mxfile host="" modified="2020-05-24T15:11:08.005Z" agent="5.0 (Macintosh; Intel Mac OS X 10_15_3) AppleWebKit/537.36 (KHTML, like Gecko) Code/1.45.1 Chrome/78.0.3904.130 Electron/7.2.4 Safari/537.36" etag="aP1HnnD7oK78YhCi3BGC" version="13.1.3">
    <diagram id="lSGI7iEO2VnNSIy_wEiz" name="第 1 页">
        <mxGraphModel dx="683" dy="680" grid="1" gridSize="10" guides="1" tooltips="1" connect="1" arrows="1" fold="1" page="1" pageScale="1" pageWidth="1200" pageHeight="1920" math="0" shadow="0">
            <root>
                <mxCell id="0"/>
                <mxCell id="1" parent="0"/>
                <mxCell id="9" value="Pomelo三大构件" style="text;strokeColor=none;fillColor=none;html=1;fontSize=24;fontStyle=1;verticalAlign=middle;align=center;" vertex="1" parent="1">
                    <mxGeometry x="270" y="40" width="100" height="40" as="geometry"/>
                </mxCell>
                <mxCell id="15" value="" style="group" vertex="1" connectable="0" parent="1">
                    <mxGeometry x="40" y="120" width="590" height="160" as="geometry"/>
                </mxCell>
                <mxCell id="14" value="" style="rounded=1;whiteSpace=wrap;html=1;strokeWidth=4;fontSize=21;" vertex="1" parent="15">
                    <mxGeometry width="590" height="160" as="geometry"/>
                </mxCell>
                <mxCell id="6" value="Compiler" style="rounded=1;whiteSpace=wrap;html=1;fontStyle=1" vertex="1" parent="15">
                    <mxGeometry x="25" y="40" width="120" height="60" as="geometry"/>
                </mxCell>
                <mxCell id="10" value="RuntimeContext" style="rounded=1;whiteSpace=wrap;html=1;fontStyle=1" vertex="1" parent="15">
                    <mxGeometry x="235" y="40" width="120" height="60" as="geometry"/>
                </mxCell>
                <mxCell id="11" value="Virtual" style="rounded=1;whiteSpace=wrap;html=1;fontStyle=1" vertex="1" parent="15">
                    <mxGeometry x="445" y="40" width="120" height="60" as="geometry"/>
                </mxCell>
                <mxCell id="20" style="edgeStyle=orthogonalEdgeStyle;rounded=0;orthogonalLoop=1;jettySize=auto;html=1;exitX=0.5;exitY=1;exitDx=0;exitDy=0;entryX=0.5;entryY=0;entryDx=0;entryDy=0;fontSize=13;" edge="1" parent="1" source="16" target="19">
                    <mxGeometry relative="1" as="geometry"/>
                </mxCell>
                <mxCell id="16" value="读取脚本文件" style="rounded=1;whiteSpace=wrap;html=1;strokeWidth=4;fontSize=13;" vertex="1" parent="1">
                    <mxGeometry x="50" y="430" width="120" height="60" as="geometry"/>
                </mxCell>
                <mxCell id="17" value="编译过程总览" style="text;strokeColor=none;fillColor=none;html=1;fontSize=24;fontStyle=1;verticalAlign=middle;align=center;" vertex="1" parent="1">
                    <mxGeometry x="270" y="340" width="100" height="40" as="geometry"/>
                </mxCell>
                <mxCell id="21" style="edgeStyle=orthogonalEdgeStyle;rounded=0;orthogonalLoop=1;jettySize=auto;html=1;exitX=0.5;exitY=1;exitDx=0;exitDy=0;entryX=0.5;entryY=0;entryDx=0;entryDy=0;fontSize=13;" edge="1" parent="1" source="18" target="19">
                    <mxGeometry relative="1" as="geometry"/>
                </mxCell>
                <mxCell id="18" value="读取命令行代码" style="rounded=1;whiteSpace=wrap;html=1;strokeWidth=4;fontSize=13;" vertex="1" parent="1">
                    <mxGeometry x="470" y="430" width="120" height="60" as="geometry"/>
                </mxCell>
                <mxCell id="23" style="edgeStyle=orthogonalEdgeStyle;rounded=0;orthogonalLoop=1;jettySize=auto;html=1;exitX=0.5;exitY=1;exitDx=0;exitDy=0;entryX=0.5;entryY=0;entryDx=0;entryDy=0;fontSize=13;" edge="1" parent="1" source="19" target="22">
                    <mxGeometry relative="1" as="geometry"/>
                </mxCell>
                <mxCell id="19" value="创建RuntimeContext" style="rounded=1;whiteSpace=wrap;html=1;strokeWidth=4;fontSize=13;" vertex="1" parent="1">
                    <mxGeometry x="245" y="600" width="150" height="60" as="geometry"/>
                </mxCell>
                <mxCell id="25" style="edgeStyle=orthogonalEdgeStyle;rounded=0;orthogonalLoop=1;jettySize=auto;html=1;exitX=0.5;exitY=1;exitDx=0;exitDy=0;entryX=0.5;entryY=0;entryDx=0;entryDy=0;fontSize=13;" edge="1" parent="1" source="22" target="24">
                    <mxGeometry relative="1" as="geometry"/>
                </mxCell>
                <mxCell id="22" value="创建Module对象" style="rounded=1;whiteSpace=wrap;html=1;strokeWidth=4;fontSize=13;" vertex="1" parent="1">
                    <mxGeometry x="245" y="740" width="150" height="60" as="geometry"/>
                </mxCell>
                <mxCell id="27" style="edgeStyle=orthogonalEdgeStyle;rounded=0;orthogonalLoop=1;jettySize=auto;html=1;exitX=0.5;exitY=1;exitDx=0;exitDy=0;entryX=0.5;entryY=0;entryDx=0;entryDy=0;fontSize=13;" edge="1" parent="1" source="24" target="26">
                    <mxGeometry relative="1" as="geometry"/>
                </mxCell>
                <mxCell id="24" value="编译Module对象，&lt;br&gt;输出含有字节码的Fn对象" style="rounded=1;whiteSpace=wrap;html=1;strokeWidth=4;fontSize=13;" vertex="1" parent="1">
                    <mxGeometry x="237.5" y="870" width="165" height="60" as="geometry"/>
                </mxCell>
                <mxCell id="29" style="edgeStyle=orthogonalEdgeStyle;rounded=0;orthogonalLoop=1;jettySize=auto;html=1;exitX=0.5;exitY=1;exitDx=0;exitDy=0;fontSize=13;" edge="1" parent="1" source="26" target="28">
                    <mxGeometry relative="1" as="geometry"/>
                </mxCell>
                <mxCell id="26" value="创建虚拟机" style="rounded=1;whiteSpace=wrap;html=1;strokeWidth=4;fontSize=13;" vertex="1" parent="1">
                    <mxGeometry x="237.5" y="1000" width="165" height="60" as="geometry"/>
                </mxCell>
                <mxCell id="31" style="edgeStyle=orthogonalEdgeStyle;rounded=0;orthogonalLoop=1;jettySize=auto;html=1;exitX=0.5;exitY=1;exitDx=0;exitDy=0;entryX=0.5;entryY=0;entryDx=0;entryDy=0;fontSize=13;" edge="1" parent="1" source="28" target="30">
                    <mxGeometry relative="1" as="geometry"/>
                </mxCell>
                <mxCell id="28" value="虚拟机通过RuntimeContext和Fn对象中的字节码执行" style="rounded=1;whiteSpace=wrap;html=1;strokeWidth=4;fontSize=13;" vertex="1" parent="1">
                    <mxGeometry x="223.75" y="1140" width="192.5" height="60" as="geometry"/>
                </mxCell>
                <mxCell id="30" value="返回执行结果" style="rounded=1;whiteSpace=wrap;html=1;strokeWidth=4;fontSize=13;" vertex="1" parent="1">
                    <mxGeometry x="231.88" y="1270" width="176.25" height="60" as="geometry"/>
                </mxCell>
            </root>
        </mxGraphModel>
    </diagram>
</mxfile>